<mxfile host="app.diagrams.net" modified="2021-07-31T06:45:23.795Z" agent="5.0 (Windows NT 10.0; Win64; x64) AppleWebKit/537.36 (KHTML, like Gecko) Chrome/92.0.4515.107 Safari/537.36" etag="dm6RkVryb7gY9nulEbH2" version="14.8.6" type="github">
  <diagram id="60i7GoItyx0p6oemxcp6" name="Page-1">
    <mxGraphModel dx="1504" dy="363" grid="1" gridSize="10" guides="1" tooltips="1" connect="1" arrows="1" fold="1" page="1" pageScale="1" pageWidth="827" pageHeight="1169" math="0" shadow="0">
      <root>
        <mxCell id="0" />
        <mxCell id="1" parent="0" />
        <mxCell id="CAWZM7_2YIbzBBNJx4l_-1" value="SCAN_WIFI" style="rounded=1;whiteSpace=wrap;html=1;" parent="1" vertex="1">
          <mxGeometry x="350" y="40" width="120" height="60" as="geometry" />
        </mxCell>
        <mxCell id="CAWZM7_2YIbzBBNJx4l_-5" style="edgeStyle=orthogonalEdgeStyle;rounded=0;orthogonalLoop=1;jettySize=auto;html=1;exitX=1;exitY=0.5;exitDx=0;exitDy=0;" parent="1" source="CAWZM7_2YIbzBBNJx4l_-2" edge="1">
          <mxGeometry relative="1" as="geometry">
            <mxPoint x="470" y="180" as="targetPoint" />
            <Array as="points">
              <mxPoint x="540" y="320" />
              <mxPoint x="540" y="180" />
            </Array>
          </mxGeometry>
        </mxCell>
        <mxCell id="CAWZM7_2YIbzBBNJx4l_-2" value="Feedback:&lt;br&gt;SAVED" style="ellipse;whiteSpace=wrap;html=1;" parent="1" vertex="1">
          <mxGeometry x="350" y="280" width="120" height="80" as="geometry" />
        </mxCell>
        <mxCell id="CAWZM7_2YIbzBBNJx4l_-6" value="False or timeout( 3s)" style="text;html=1;align=center;verticalAlign=middle;resizable=0;points=[];autosize=1;strokeColor=none;" parent="1" vertex="1">
          <mxGeometry x="444" y="340" width="130" height="20" as="geometry" />
        </mxCell>
        <mxCell id="CAWZM7_2YIbzBBNJx4l_-8" value="" style="endArrow=classic;html=1;entryX=0.5;entryY=0;entryDx=0;entryDy=0;" parent="1" edge="1">
          <mxGeometry width="50" height="50" relative="1" as="geometry">
            <mxPoint x="409.6" y="210" as="sourcePoint" />
            <mxPoint x="409.6" y="270" as="targetPoint" />
          </mxGeometry>
        </mxCell>
        <mxCell id="CAWZM7_2YIbzBBNJx4l_-9" value="True" style="text;html=1;align=center;verticalAlign=middle;resizable=0;points=[];autosize=1;strokeColor=none;" parent="1" vertex="1">
          <mxGeometry x="410" y="370" width="40" height="20" as="geometry" />
        </mxCell>
        <mxCell id="CAWZM7_2YIbzBBNJx4l_-10" value="" style="endArrow=classic;html=1;entryX=0.503;entryY=-0.037;entryDx=0;entryDy=0;entryPerimeter=0;" parent="1" edge="1" target="KtLdc9xmiquJUsr8TrXR-1">
          <mxGeometry width="50" height="50" relative="1" as="geometry">
            <mxPoint x="410" y="100" as="sourcePoint" />
            <mxPoint x="410" y="160" as="targetPoint" />
          </mxGeometry>
        </mxCell>
        <mxCell id="CAWZM7_2YIbzBBNJx4l_-11" value="True" style="text;html=1;align=center;verticalAlign=middle;resizable=0;points=[];autosize=1;strokeColor=none;" parent="1" vertex="1">
          <mxGeometry x="410" y="120" width="40" height="20" as="geometry" />
        </mxCell>
        <mxCell id="CAWZM7_2YIbzBBNJx4l_-12" value="" style="endArrow=classic;html=1;entryX=0.5;entryY=0;entryDx=0;entryDy=0;" parent="1" edge="1">
          <mxGeometry width="50" height="50" relative="1" as="geometry">
            <mxPoint x="410" y="360" as="sourcePoint" />
            <mxPoint x="410" y="420" as="targetPoint" />
          </mxGeometry>
        </mxCell>
        <mxCell id="CAWZM7_2YIbzBBNJx4l_-14" value="WAITTING" style="ellipse;whiteSpace=wrap;html=1;" parent="1" vertex="1">
          <mxGeometry x="350" y="430" width="120" height="80" as="geometry" />
        </mxCell>
        <mxCell id="CAWZM7_2YIbzBBNJx4l_-15" value="Get Status connect&lt;br&gt;STATUS" style="ellipse;whiteSpace=wrap;html=1;" parent="1" vertex="1">
          <mxGeometry x="350" y="570" width="120" height="80" as="geometry" />
        </mxCell>
        <mxCell id="CAWZM7_2YIbzBBNJx4l_-16" value="" style="endArrow=classic;html=1;entryX=0.5;entryY=0;entryDx=0;entryDy=0;" parent="1" edge="1">
          <mxGeometry width="50" height="50" relative="1" as="geometry">
            <mxPoint x="410" y="510" as="sourcePoint" />
            <mxPoint x="410" y="570" as="targetPoint" />
          </mxGeometry>
        </mxCell>
        <mxCell id="CAWZM7_2YIbzBBNJx4l_-17" value="True" style="text;html=1;align=center;verticalAlign=middle;resizable=0;points=[];autosize=1;strokeColor=none;" parent="1" vertex="1">
          <mxGeometry x="410" y="530" width="40" height="20" as="geometry" />
        </mxCell>
        <mxCell id="CAWZM7_2YIbzBBNJx4l_-18" value="Restart Device&lt;br&gt;RESTART" style="rounded=1;whiteSpace=wrap;html=1;" parent="1" vertex="1">
          <mxGeometry x="354" y="710" width="120" height="60" as="geometry" />
        </mxCell>
        <mxCell id="CAWZM7_2YIbzBBNJx4l_-20" value="" style="endArrow=classic;html=1;entryX=0.5;entryY=0;entryDx=0;entryDy=0;" parent="1" edge="1">
          <mxGeometry width="50" height="50" relative="1" as="geometry">
            <mxPoint x="410" y="650" as="sourcePoint" />
            <mxPoint x="410" y="710" as="targetPoint" />
          </mxGeometry>
        </mxCell>
        <mxCell id="CAWZM7_2YIbzBBNJx4l_-21" value="True" style="text;html=1;align=center;verticalAlign=middle;resizable=0;points=[];autosize=1;strokeColor=none;" parent="1" vertex="1">
          <mxGeometry x="410" y="670" width="40" height="20" as="geometry" />
        </mxCell>
        <mxCell id="CAWZM7_2YIbzBBNJx4l_-22" value="" style="endArrow=classic;html=1;entryX=0.5;entryY=0;entryDx=0;entryDy=0;" parent="1" edge="1">
          <mxGeometry width="50" height="50" relative="1" as="geometry">
            <mxPoint x="410" y="770" as="sourcePoint" />
            <mxPoint x="410" y="830" as="targetPoint" />
          </mxGeometry>
        </mxCell>
        <mxCell id="CAWZM7_2YIbzBBNJx4l_-24" value="Complete" style="rounded=1;whiteSpace=wrap;html=1;" parent="1" vertex="1">
          <mxGeometry x="350" y="830" width="120" height="60" as="geometry" />
        </mxCell>
        <mxCell id="CAWZM7_2YIbzBBNJx4l_-25" value="" style="endArrow=classic;html=1;entryX=1;entryY=0.5;entryDx=0;entryDy=0;" parent="1" target="CAWZM7_2YIbzBBNJx4l_-1" edge="1">
          <mxGeometry width="50" height="50" relative="1" as="geometry">
            <mxPoint x="474" y="610" as="sourcePoint" />
            <mxPoint x="600" y="50" as="targetPoint" />
            <Array as="points">
              <mxPoint x="600" y="610" />
              <mxPoint x="600" y="70" />
            </Array>
          </mxGeometry>
        </mxCell>
        <mxCell id="CAWZM7_2YIbzBBNJx4l_-26" value="False or timeout" style="text;html=1;align=center;verticalAlign=middle;resizable=0;points=[];autosize=1;strokeColor=none;" parent="1" vertex="1">
          <mxGeometry x="474" y="585" width="100" height="20" as="geometry" />
        </mxCell>
        <mxCell id="CAWZM7_2YIbzBBNJx4l_-28" value="" style="endArrow=classic;html=1;entryX=1;entryY=0.667;entryDx=0;entryDy=0;entryPerimeter=0;" parent="1" target="CAWZM7_2YIbzBBNJx4l_-1" edge="1">
          <mxGeometry width="50" height="50" relative="1" as="geometry">
            <mxPoint x="480" y="470" as="sourcePoint" />
            <mxPoint x="570" y="65" as="targetPoint" />
            <Array as="points">
              <mxPoint x="570" y="470" />
              <mxPoint x="570" y="80" />
            </Array>
          </mxGeometry>
        </mxCell>
        <mxCell id="CAWZM7_2YIbzBBNJx4l_-30" value="{&quot;TCMD&quot;:&quot;CTRL&quot;,&quot;CMD&quot;:&quot;SCAN_WIFI&quot;}" style="text;html=1;align=center;verticalAlign=middle;resizable=0;points=[];autosize=1;strokeColor=#d6b656;fillColor=#fff2cc;" parent="1" vertex="1">
          <mxGeometry x="120" y="60" width="230" height="20" as="geometry" />
        </mxCell>
        <mxCell id="CAWZM7_2YIbzBBNJx4l_-31" value="{&quot;NSSID&quot;:&quot;&amp;lt;1&amp;gt;&quot;,&quot;SSID&quot;:&quot;&amp;lt;tên wifi 1&amp;gt;&quot;,&quot;RSSI&quot;:&quot;&amp;lt;-50db&amp;gt;&quot;,&quot;SECURE&quot;:&quot;&amp;lt;WPA2&amp;gt;&quot;}" style="text;html=1;align=center;verticalAlign=middle;resizable=0;points=[];autosize=1;strokeColor=#82b366;fillColor=#d5e8d4;" parent="1" vertex="1">
          <mxGeometry x="-85" y="170" width="430" height="20" as="geometry" />
        </mxCell>
        <mxCell id="CAWZM7_2YIbzBBNJx4l_-32" value="{&quot;TCMD&quot;:&quot;FBACK&quot;,&quot;STATUS&quot;:&quot;SAVED&quot;}&amp;nbsp;" style="text;html=1;align=center;verticalAlign=middle;resizable=0;points=[];autosize=1;strokeColor=#82b366;fillColor=#d5e8d4;" parent="1" vertex="1">
          <mxGeometry x="110" y="310" width="230" height="20" as="geometry" />
        </mxCell>
        <mxCell id="CAWZM7_2YIbzBBNJx4l_-34" value="{&quot;TCMD&quot;:&quot;FBACK&quot;,&quot;STATUS&quot;:&quot;FALSE&quot;}&amp;nbsp;" style="text;html=1;align=center;verticalAlign=middle;resizable=0;points=[];autosize=1;strokeColor=#b85450;fillColor=#f8cecc;" parent="1" vertex="1">
          <mxGeometry x="610" y="190" width="230" height="20" as="geometry" />
        </mxCell>
        <mxCell id="CAWZM7_2YIbzBBNJx4l_-37" value="{&quot;TCMD&quot;:&quot;CTRL&quot;,&quot;WIFI_CONN&quot;:”STATUS&quot;}&amp;nbsp;" style="text;html=1;align=center;verticalAlign=middle;resizable=0;points=[];autosize=1;strokeColor=#d6b656;fillColor=#fff2cc;" parent="1" vertex="1">
          <mxGeometry x="90" y="585" width="250" height="20" as="geometry" />
        </mxCell>
        <mxCell id="CAWZM7_2YIbzBBNJx4l_-39" value="{&quot;TCMD&quot;:&quot;FBACK&quot;,&quot;WIFI_CONN&quot;:&quot;TRUE&quot;}&amp;nbsp;" style="text;html=1;align=center;verticalAlign=middle;resizable=0;points=[];autosize=1;strokeColor=#82b366;fillColor=#d5e8d4;" parent="1" vertex="1">
          <mxGeometry x="90" y="620" width="250" height="20" as="geometry" />
        </mxCell>
        <mxCell id="CAWZM7_2YIbzBBNJx4l_-40" value="{&quot;TCMD&quot;:&quot;FBACK&quot;,&quot;WIFI_CONN&quot;:&quot;FALSE&quot;}&amp;nbsp;" style="text;html=1;align=center;verticalAlign=middle;resizable=0;points=[];autosize=1;strokeColor=#b85450;fillColor=#f8cecc;" parent="1" vertex="1">
          <mxGeometry x="480" y="620" width="250" height="20" as="geometry" />
        </mxCell>
        <mxCell id="CAWZM7_2YIbzBBNJx4l_-41" value="{&quot;TCMD&quot;:&quot;CTRL&quot;,&quot;CMD&quot;:&quot;RESTART&quot;}" style="text;html=1;align=center;verticalAlign=middle;resizable=0;points=[];autosize=1;strokeColor=#d6b656;fillColor=#fff2cc;" parent="1" vertex="1">
          <mxGeometry x="125" y="730" width="220" height="20" as="geometry" />
        </mxCell>
        <mxCell id="CAWZM7_2YIbzBBNJx4l_-42" value="Device will turn off wifi signal and comeback in 20s&lt;br&gt;APP will reconnect to device and get status of WIFI_CONN command" style="text;html=1;align=center;verticalAlign=middle;resizable=0;points=[];autosize=1;strokeColor=none;" parent="1" vertex="1">
          <mxGeometry y="385" width="390" height="30" as="geometry" />
        </mxCell>
        <mxCell id="KtLdc9xmiquJUsr8TrXR-1" value="SEND CMD&lt;br&gt;WIFI_CONN" style="rounded=1;whiteSpace=wrap;html=1;" vertex="1" parent="1">
          <mxGeometry x="350" y="150" width="120" height="60" as="geometry" />
        </mxCell>
        <mxCell id="KtLdc9xmiquJUsr8TrXR-2" value="False or timeout( 20s)" style="text;html=1;align=center;verticalAlign=middle;resizable=0;points=[];autosize=1;strokeColor=none;" vertex="1" parent="1">
          <mxGeometry x="470" y="470" width="130" height="20" as="geometry" />
        </mxCell>
      </root>
    </mxGraphModel>
  </diagram>
</mxfile>
